<mxfile host="app.diagrams.net" modified="2024-04-22T17:41:03.448Z" agent="Mozilla/5.0 (Windows NT 10.0; Win64; x64; rv:125.0) Gecko/20100101 Firefox/125.0" etag="QOZMUnuscw48S-H08sGk" version="24.2.7" type="device">
  <diagram name="Page-1" id="oHJoo0tsj64nYkgIV026">
    <mxGraphModel dx="2762" dy="2438" grid="1" gridSize="10" guides="1" tooltips="1" connect="1" arrows="1" fold="1" page="1" pageScale="1" pageWidth="1169" pageHeight="1654" background="#ffffff" math="0" shadow="0">
      <root>
        <mxCell id="0" />
        <mxCell id="1" parent="0" />
        <mxCell id="dOjIr_5ijq0Jgbx3m4R6-1" value="Create Account" style="ellipse;whiteSpace=wrap;html=1;" vertex="1" parent="1">
          <mxGeometry x="220" y="110" width="120" height="40" as="geometry" />
        </mxCell>
        <mxCell id="dOjIr_5ijq0Jgbx3m4R6-2" value="Login" style="ellipse;whiteSpace=wrap;html=1;" vertex="1" parent="1">
          <mxGeometry x="215" y="180" width="120" height="40" as="geometry" />
        </mxCell>
        <mxCell id="dOjIr_5ijq0Jgbx3m4R6-3" value="" style="endArrow=classic;html=1;rounded=0;entryX=0.5;entryY=1;entryDx=0;entryDy=0;" edge="1" parent="1" target="dOjIr_5ijq0Jgbx3m4R6-2">
          <mxGeometry width="50" height="50" relative="1" as="geometry">
            <mxPoint x="275" y="250" as="sourcePoint" />
            <mxPoint x="610" y="390" as="targetPoint" />
          </mxGeometry>
        </mxCell>
        <mxCell id="dOjIr_5ijq0Jgbx3m4R6-4" value="" style="endArrow=none;html=1;rounded=0;entryX=0.5;entryY=0;entryDx=0;entryDy=0;" edge="1" parent="1" target="dOjIr_5ijq0Jgbx3m4R6-5">
          <mxGeometry width="50" height="50" relative="1" as="geometry">
            <mxPoint x="440" y="270" as="sourcePoint" />
            <mxPoint x="200" y="250" as="targetPoint" />
            <Array as="points">
              <mxPoint x="440" y="250" />
              <mxPoint x="410" y="250" />
              <mxPoint x="350" y="250" />
              <mxPoint x="260" y="250" />
              <mxPoint x="220" y="250" />
            </Array>
          </mxGeometry>
        </mxCell>
        <mxCell id="dOjIr_5ijq0Jgbx3m4R6-5" value="Patient login" style="ellipse;whiteSpace=wrap;html=1;" vertex="1" parent="1">
          <mxGeometry x="160" y="270" width="120" height="40" as="geometry" />
        </mxCell>
        <mxCell id="dOjIr_5ijq0Jgbx3m4R6-6" value="Doctor login" style="ellipse;whiteSpace=wrap;html=1;" vertex="1" parent="1">
          <mxGeometry x="380" y="270" width="120" height="40" as="geometry" />
        </mxCell>
        <mxCell id="dOjIr_5ijq0Jgbx3m4R6-7" value="View Patient&#39;s Profile" style="ellipse;whiteSpace=wrap;html=1;" vertex="1" parent="1">
          <mxGeometry x="200" y="360" width="140" height="50" as="geometry" />
        </mxCell>
        <mxCell id="dOjIr_5ijq0Jgbx3m4R6-8" value="Previous checkup records" style="ellipse;whiteSpace=wrap;html=1;" vertex="1" parent="1">
          <mxGeometry x="515" y="380" width="140" height="50" as="geometry" />
        </mxCell>
        <mxCell id="dOjIr_5ijq0Jgbx3m4R6-9" value="" style="endArrow=classic;html=1;rounded=0;entryX=0;entryY=0.5;entryDx=0;entryDy=0;" edge="1" parent="1" target="dOjIr_5ijq0Jgbx3m4R6-8">
          <mxGeometry width="50" height="50" relative="1" as="geometry">
            <mxPoint x="460" y="400" as="sourcePoint" />
            <mxPoint x="610" y="370" as="targetPoint" />
          </mxGeometry>
        </mxCell>
        <mxCell id="dOjIr_5ijq0Jgbx3m4R6-11" value="" style="endArrow=none;dashed=1;html=1;rounded=0;entryX=1;entryY=0.5;entryDx=0;entryDy=0;" edge="1" parent="1" target="dOjIr_5ijq0Jgbx3m4R6-7">
          <mxGeometry width="50" height="50" relative="1" as="geometry">
            <mxPoint x="460" y="400" as="sourcePoint" />
            <mxPoint x="610" y="370" as="targetPoint" />
          </mxGeometry>
        </mxCell>
        <mxCell id="dOjIr_5ijq0Jgbx3m4R6-12" value="&amp;lt;&amp;lt; include &amp;gt;&amp;gt;" style="text;html=1;align=center;verticalAlign=middle;resizable=0;points=[];autosize=1;strokeColor=none;fillColor=none;rotation=0;" vertex="1" parent="1">
          <mxGeometry x="400" y="370" width="100" height="30" as="geometry" />
        </mxCell>
        <mxCell id="dOjIr_5ijq0Jgbx3m4R6-17" value="View doctor&#39;s list" style="ellipse;whiteSpace=wrap;html=1;" vertex="1" parent="1">
          <mxGeometry x="250" y="460" width="130" height="40" as="geometry" />
        </mxCell>
        <mxCell id="dOjIr_5ijq0Jgbx3m4R6-18" value="" style="endArrow=none;dashed=1;html=1;rounded=0;exitX=0.7;exitY=-0.05;exitDx=0;exitDy=0;exitPerimeter=0;entryX=0.5;entryY=0.933;entryDx=0;entryDy=0;entryPerimeter=0;" edge="1" parent="1" source="dOjIr_5ijq0Jgbx3m4R6-17" target="dOjIr_5ijq0Jgbx3m4R6-19">
          <mxGeometry width="50" height="50" relative="1" as="geometry">
            <mxPoint x="560" y="600" as="sourcePoint" />
            <mxPoint x="380" y="380" as="targetPoint" />
          </mxGeometry>
        </mxCell>
        <mxCell id="dOjIr_5ijq0Jgbx3m4R6-19" value="&amp;lt;&amp;lt; include &amp;gt;&amp;gt;" style="text;html=1;align=center;verticalAlign=middle;resizable=0;points=[];autosize=1;strokeColor=none;fillColor=none;rotation=0;" vertex="1" parent="1">
          <mxGeometry x="340" y="330" width="100" height="30" as="geometry" />
        </mxCell>
        <mxCell id="dOjIr_5ijq0Jgbx3m4R6-20" value="" style="endArrow=classic;html=1;rounded=0;entryX=0.258;entryY=0.975;entryDx=0;entryDy=0;entryPerimeter=0;" edge="1" parent="1" target="dOjIr_5ijq0Jgbx3m4R6-6">
          <mxGeometry width="50" height="50" relative="1" as="geometry">
            <mxPoint x="400" y="340" as="sourcePoint" />
            <mxPoint x="610" y="550" as="targetPoint" />
          </mxGeometry>
        </mxCell>
        <mxCell id="dOjIr_5ijq0Jgbx3m4R6-21" value="Doctor&#39;s specification " style="ellipse;whiteSpace=wrap;html=1;" vertex="1" parent="1">
          <mxGeometry x="500" y="500" width="140" height="40" as="geometry" />
        </mxCell>
        <mxCell id="dOjIr_5ijq0Jgbx3m4R6-22" value="" style="endArrow=none;dashed=1;html=1;rounded=0;exitX=1;exitY=0.5;exitDx=0;exitDy=0;" edge="1" parent="1" source="dOjIr_5ijq0Jgbx3m4R6-17">
          <mxGeometry width="50" height="50" relative="1" as="geometry">
            <mxPoint x="560" y="630" as="sourcePoint" />
            <mxPoint x="470" y="510" as="targetPoint" />
          </mxGeometry>
        </mxCell>
        <mxCell id="dOjIr_5ijq0Jgbx3m4R6-23" value="" style="endArrow=classic;html=1;rounded=0;entryX=0;entryY=0.5;entryDx=0;entryDy=0;" edge="1" parent="1" target="dOjIr_5ijq0Jgbx3m4R6-21">
          <mxGeometry width="50" height="50" relative="1" as="geometry">
            <mxPoint x="470" y="510" as="sourcePoint" />
            <mxPoint x="610" y="580" as="targetPoint" />
          </mxGeometry>
        </mxCell>
        <mxCell id="dOjIr_5ijq0Jgbx3m4R6-24" value="&amp;lt;&amp;lt; include &amp;gt;&amp;gt;" style="text;html=1;align=center;verticalAlign=middle;resizable=0;points=[];autosize=1;strokeColor=none;fillColor=none;rotation=0;" vertex="1" parent="1">
          <mxGeometry x="415" y="470" width="100" height="30" as="geometry" />
        </mxCell>
        <mxCell id="dOjIr_5ijq0Jgbx3m4R6-25" value="Booking appointment " style="ellipse;whiteSpace=wrap;html=1;" vertex="1" parent="1">
          <mxGeometry x="215" y="540" width="140" height="50" as="geometry" />
        </mxCell>
        <mxCell id="dOjIr_5ijq0Jgbx3m4R6-26" value="Cancel booking" style="ellipse;whiteSpace=wrap;html=1;" vertex="1" parent="1">
          <mxGeometry x="165" y="670" width="130" height="50" as="geometry" />
        </mxCell>
        <mxCell id="dOjIr_5ijq0Jgbx3m4R6-27" value="Ongoing serial" style="ellipse;whiteSpace=wrap;html=1;" vertex="1" parent="1">
          <mxGeometry x="225" y="760" width="120" height="50" as="geometry" />
        </mxCell>
        <mxCell id="dOjIr_5ijq0Jgbx3m4R6-28" value="Appointment sheduling " style="ellipse;whiteSpace=wrap;html=1;" vertex="1" parent="1">
          <mxGeometry x="410" y="630" width="145" height="50" as="geometry" />
        </mxCell>
        <mxCell id="dOjIr_5ijq0Jgbx3m4R6-29" value="" style="endArrow=none;dashed=1;html=1;rounded=0;entryX=0;entryY=0;entryDx=0;entryDy=0;exitX=0.416;exitY=0.947;exitDx=0;exitDy=0;exitPerimeter=0;" edge="1" parent="1" source="dOjIr_5ijq0Jgbx3m4R6-30" target="dOjIr_5ijq0Jgbx3m4R6-25">
          <mxGeometry width="50" height="50" relative="1" as="geometry">
            <mxPoint x="170" y="450" as="sourcePoint" />
            <mxPoint x="610" y="580" as="targetPoint" />
          </mxGeometry>
        </mxCell>
        <mxCell id="dOjIr_5ijq0Jgbx3m4R6-30" value="&amp;lt;&amp;lt; include &amp;gt;&amp;gt;" style="text;html=1;align=center;verticalAlign=middle;resizable=0;points=[];autosize=1;strokeColor=none;fillColor=none;rotation=0;" vertex="1" parent="1">
          <mxGeometry x="129" y="410" width="100" height="30" as="geometry" />
        </mxCell>
        <mxCell id="dOjIr_5ijq0Jgbx3m4R6-31" value="" style="endArrow=none;dashed=1;html=1;rounded=0;entryX=0.4;entryY=0.1;entryDx=0;entryDy=0;entryPerimeter=0;" edge="1" parent="1" target="dOjIr_5ijq0Jgbx3m4R6-30">
          <mxGeometry width="50" height="50" relative="1" as="geometry">
            <mxPoint x="190" y="340" as="sourcePoint" />
            <mxPoint x="610" y="580" as="targetPoint" />
          </mxGeometry>
        </mxCell>
        <mxCell id="dOjIr_5ijq0Jgbx3m4R6-32" value="" style="endArrow=classic;html=1;rounded=0;entryX=0.357;entryY=0.946;entryDx=0;entryDy=0;entryPerimeter=0;" edge="1" parent="1" target="dOjIr_5ijq0Jgbx3m4R6-5">
          <mxGeometry width="50" height="50" relative="1" as="geometry">
            <mxPoint x="190" y="340" as="sourcePoint" />
            <mxPoint x="610" y="460" as="targetPoint" />
          </mxGeometry>
        </mxCell>
        <mxCell id="dOjIr_5ijq0Jgbx3m4R6-39" value="&amp;lt;&amp;lt; include &amp;gt;&amp;gt;" style="text;html=1;align=center;verticalAlign=middle;resizable=0;points=[];autosize=1;strokeColor=none;fillColor=none;rotation=0;" vertex="1" parent="1">
          <mxGeometry x="355" y="590" width="100" height="30" as="geometry" />
        </mxCell>
        <mxCell id="dOjIr_5ijq0Jgbx3m4R6-40" value="" style="endArrow=none;dashed=1;html=1;rounded=0;exitX=1;exitY=1;exitDx=0;exitDy=0;entryX=0.25;entryY=1.2;entryDx=0;entryDy=0;entryPerimeter=0;" edge="1" parent="1" source="dOjIr_5ijq0Jgbx3m4R6-25" target="dOjIr_5ijq0Jgbx3m4R6-39">
          <mxGeometry width="50" height="50" relative="1" as="geometry">
            <mxPoint x="555" y="590" as="sourcePoint" />
            <mxPoint x="605" y="540" as="targetPoint" />
          </mxGeometry>
        </mxCell>
        <mxCell id="dOjIr_5ijq0Jgbx3m4R6-41" value="" style="endArrow=classic;html=1;rounded=0;entryX=0;entryY=0.5;entryDx=0;entryDy=0;" edge="1" parent="1" target="dOjIr_5ijq0Jgbx3m4R6-28">
          <mxGeometry width="50" height="50" relative="1" as="geometry">
            <mxPoint x="385" y="630" as="sourcePoint" />
            <mxPoint x="605" y="540" as="targetPoint" />
          </mxGeometry>
        </mxCell>
        <mxCell id="dOjIr_5ijq0Jgbx3m4R6-42" value="" style="endArrow=none;dashed=1;html=1;rounded=0;exitX=0.5;exitY=0;exitDx=0;exitDy=0;" edge="1" parent="1" source="dOjIr_5ijq0Jgbx3m4R6-26">
          <mxGeometry width="50" height="50" relative="1" as="geometry">
            <mxPoint x="555" y="590" as="sourcePoint" />
            <mxPoint x="245" y="640" as="targetPoint" />
          </mxGeometry>
        </mxCell>
        <mxCell id="dOjIr_5ijq0Jgbx3m4R6-43" value="&amp;lt;&amp;lt; extend &amp;gt;&amp;gt;" style="text;html=1;align=center;verticalAlign=middle;resizable=0;points=[];autosize=1;strokeColor=none;fillColor=none;" vertex="1" parent="1">
          <mxGeometry x="205" y="610" width="90" height="30" as="geometry" />
        </mxCell>
        <mxCell id="dOjIr_5ijq0Jgbx3m4R6-44" value="" style="endArrow=classic;html=1;rounded=0;entryX=0.357;entryY=1;entryDx=0;entryDy=0;entryPerimeter=0;" edge="1" parent="1" target="dOjIr_5ijq0Jgbx3m4R6-25">
          <mxGeometry width="50" height="50" relative="1" as="geometry">
            <mxPoint x="255" y="620" as="sourcePoint" />
            <mxPoint x="605" y="540" as="targetPoint" />
          </mxGeometry>
        </mxCell>
        <mxCell id="dOjIr_5ijq0Jgbx3m4R6-45" value="Need help" style="ellipse;whiteSpace=wrap;html=1;" vertex="1" parent="1">
          <mxGeometry x="455" y="140" width="100" height="40" as="geometry" />
        </mxCell>
        <mxCell id="dOjIr_5ijq0Jgbx3m4R6-46" value="" style="endArrow=none;dashed=1;html=1;rounded=0;exitX=0;exitY=0.5;exitDx=0;exitDy=0;" edge="1" parent="1" source="dOjIr_5ijq0Jgbx3m4R6-45">
          <mxGeometry width="50" height="50" relative="1" as="geometry">
            <mxPoint x="560" y="450" as="sourcePoint" />
            <mxPoint x="380" y="140" as="targetPoint" />
          </mxGeometry>
        </mxCell>
        <mxCell id="dOjIr_5ijq0Jgbx3m4R6-47" value="" style="endArrow=classic;html=1;rounded=0;entryX=1;entryY=0.5;entryDx=0;entryDy=0;" edge="1" parent="1" target="dOjIr_5ijq0Jgbx3m4R6-1">
          <mxGeometry width="50" height="50" relative="1" as="geometry">
            <mxPoint x="380" y="140" as="sourcePoint" />
            <mxPoint x="610" y="400" as="targetPoint" />
          </mxGeometry>
        </mxCell>
        <mxCell id="dOjIr_5ijq0Jgbx3m4R6-48" value="&amp;lt;&amp;lt; extend &amp;gt;&amp;gt;" style="text;html=1;align=center;verticalAlign=middle;resizable=0;points=[];autosize=1;strokeColor=none;fillColor=none;" vertex="1" parent="1">
          <mxGeometry x="370" y="115" width="90" height="30" as="geometry" />
        </mxCell>
        <mxCell id="dOjIr_5ijq0Jgbx3m4R6-49" value="" style="endArrow=none;dashed=1;html=1;rounded=0;exitX=0.5;exitY=0;exitDx=0;exitDy=0;" edge="1" parent="1" source="dOjIr_5ijq0Jgbx3m4R6-27">
          <mxGeometry width="50" height="50" relative="1" as="geometry">
            <mxPoint x="555" y="670" as="sourcePoint" />
            <mxPoint x="345" y="690" as="targetPoint" />
          </mxGeometry>
        </mxCell>
        <mxCell id="dOjIr_5ijq0Jgbx3m4R6-50" value="&amp;lt;&amp;lt; include &amp;gt;&amp;gt;" style="text;html=1;align=center;verticalAlign=middle;resizable=0;points=[];autosize=1;strokeColor=none;fillColor=none;rotation=0;" vertex="1" parent="1">
          <mxGeometry x="295" y="660" width="100" height="30" as="geometry" />
        </mxCell>
        <mxCell id="dOjIr_5ijq0Jgbx3m4R6-51" value="" style="endArrow=none;dashed=1;html=1;rounded=0;exitX=0.52;exitY=0.1;exitDx=0;exitDy=0;exitPerimeter=0;" edge="1" parent="1" source="dOjIr_5ijq0Jgbx3m4R6-50">
          <mxGeometry width="50" height="50" relative="1" as="geometry">
            <mxPoint x="555" y="670" as="sourcePoint" />
            <mxPoint x="325" y="620" as="targetPoint" />
          </mxGeometry>
        </mxCell>
        <mxCell id="dOjIr_5ijq0Jgbx3m4R6-52" value="" style="endArrow=classic;html=1;rounded=0;entryX=0.664;entryY=1.02;entryDx=0;entryDy=0;entryPerimeter=0;" edge="1" parent="1" target="dOjIr_5ijq0Jgbx3m4R6-25">
          <mxGeometry width="50" height="50" relative="1" as="geometry">
            <mxPoint x="325" y="620" as="sourcePoint" />
            <mxPoint x="605" y="620" as="targetPoint" />
          </mxGeometry>
        </mxCell>
        <mxCell id="dOjIr_5ijq0Jgbx3m4R6-53" value="Online report" style="ellipse;whiteSpace=wrap;html=1;" vertex="1" parent="1">
          <mxGeometry x="165" y="850" width="125" height="50" as="geometry" />
        </mxCell>
        <mxCell id="dOjIr_5ijq0Jgbx3m4R6-54" value="Investigation list" style="ellipse;whiteSpace=wrap;html=1;" vertex="1" parent="1">
          <mxGeometry x="165" y="940" width="135" height="50" as="geometry" />
        </mxCell>
        <mxCell id="dOjIr_5ijq0Jgbx3m4R6-55" value="Cancel test booking" style="ellipse;whiteSpace=wrap;html=1;" vertex="1" parent="1">
          <mxGeometry x="420" y="860" width="135" height="50" as="geometry" />
        </mxCell>
        <mxCell id="dOjIr_5ijq0Jgbx3m4R6-56" value="" style="endArrow=none;dashed=1;html=1;rounded=0;exitX=0;exitY=0.5;exitDx=0;exitDy=0;" edge="1" parent="1" source="dOjIr_5ijq0Jgbx3m4R6-55">
          <mxGeometry width="50" height="50" relative="1" as="geometry">
            <mxPoint x="560" y="820" as="sourcePoint" />
            <mxPoint x="380" y="910" as="targetPoint" />
          </mxGeometry>
        </mxCell>
        <mxCell id="dOjIr_5ijq0Jgbx3m4R6-57" value="&amp;lt;&amp;lt; extend &amp;gt;&amp;gt;" style="text;html=1;align=center;verticalAlign=middle;resizable=0;points=[];autosize=1;strokeColor=none;fillColor=none;" vertex="1" parent="1">
          <mxGeometry x="325" y="910" width="90" height="30" as="geometry" />
        </mxCell>
        <mxCell id="dOjIr_5ijq0Jgbx3m4R6-58" value="" style="endArrow=classic;html=1;rounded=0;exitX=0.189;exitY=0.933;exitDx=0;exitDy=0;exitPerimeter=0;entryX=1;entryY=0.38;entryDx=0;entryDy=0;entryPerimeter=0;" edge="1" parent="1" source="dOjIr_5ijq0Jgbx3m4R6-57" target="dOjIr_5ijq0Jgbx3m4R6-54">
          <mxGeometry width="50" height="50" relative="1" as="geometry">
            <mxPoint x="560" y="820" as="sourcePoint" />
            <mxPoint x="610" y="770" as="targetPoint" />
          </mxGeometry>
        </mxCell>
        <mxCell id="dOjIr_5ijq0Jgbx3m4R6-59" value="Online payment" style="ellipse;whiteSpace=wrap;html=1;" vertex="1" parent="1">
          <mxGeometry x="220" y="1040" width="140" height="50" as="geometry" />
        </mxCell>
        <mxCell id="dOjIr_5ijq0Jgbx3m4R6-60" value="" style="endArrow=classic;html=1;rounded=0;entryX=0.5;entryY=1;entryDx=0;entryDy=0;" edge="1" parent="1" target="dOjIr_5ijq0Jgbx3m4R6-59">
          <mxGeometry width="50" height="50" relative="1" as="geometry">
            <mxPoint x="290" y="1120" as="sourcePoint" />
            <mxPoint x="610" y="1100" as="targetPoint" />
          </mxGeometry>
        </mxCell>
        <mxCell id="dOjIr_5ijq0Jgbx3m4R6-61" value="" style="endArrow=none;html=1;rounded=0;entryX=0.5;entryY=0;entryDx=0;entryDy=0;" edge="1" parent="1" target="dOjIr_5ijq0Jgbx3m4R6-63">
          <mxGeometry width="50" height="50" relative="1" as="geometry">
            <mxPoint x="220" y="1150" as="sourcePoint" />
            <mxPoint x="420" y="1150" as="targetPoint" />
            <Array as="points">
              <mxPoint x="220" y="1120" />
              <mxPoint x="320" y="1120" />
              <mxPoint x="370" y="1120" />
            </Array>
          </mxGeometry>
        </mxCell>
        <mxCell id="dOjIr_5ijq0Jgbx3m4R6-62" value="Bkash" style="ellipse;whiteSpace=wrap;html=1;" vertex="1" parent="1">
          <mxGeometry x="170" y="1140" width="100" height="50" as="geometry" />
        </mxCell>
        <mxCell id="dOjIr_5ijq0Jgbx3m4R6-63" value="Credit card" style="ellipse;whiteSpace=wrap;html=1;" vertex="1" parent="1">
          <mxGeometry x="320" y="1140" width="100" height="50" as="geometry" />
        </mxCell>
        <mxCell id="dOjIr_5ijq0Jgbx3m4R6-64" value="Verify sufficient funds" style="ellipse;whiteSpace=wrap;html=1;" vertex="1" parent="1">
          <mxGeometry x="470" y="1070" width="140" height="60" as="geometry" />
        </mxCell>
        <mxCell id="dOjIr_5ijq0Jgbx3m4R6-65" value="" style="endArrow=none;dashed=1;html=1;rounded=0;exitX=1;exitY=0.5;exitDx=0;exitDy=0;" edge="1" parent="1" source="dOjIr_5ijq0Jgbx3m4R6-59">
          <mxGeometry width="50" height="50" relative="1" as="geometry">
            <mxPoint x="560" y="1120" as="sourcePoint" />
            <mxPoint x="440" y="1090" as="targetPoint" />
          </mxGeometry>
        </mxCell>
        <mxCell id="dOjIr_5ijq0Jgbx3m4R6-66" value="" style="endArrow=classic;html=1;rounded=0;entryX=0;entryY=0.5;entryDx=0;entryDy=0;" edge="1" parent="1" target="dOjIr_5ijq0Jgbx3m4R6-64">
          <mxGeometry width="50" height="50" relative="1" as="geometry">
            <mxPoint x="440" y="1090" as="sourcePoint" />
            <mxPoint x="610" y="1070" as="targetPoint" />
          </mxGeometry>
        </mxCell>
        <mxCell id="dOjIr_5ijq0Jgbx3m4R6-67" value="&amp;lt;&amp;lt; include &amp;gt;&amp;gt;" style="text;html=1;align=center;verticalAlign=middle;resizable=0;points=[];autosize=1;strokeColor=none;fillColor=none;rotation=0;" vertex="1" parent="1">
          <mxGeometry x="380" y="1050" width="100" height="30" as="geometry" />
        </mxCell>
        <mxCell id="dOjIr_5ijq0Jgbx3m4R6-68" value="Give review" style="ellipse;whiteSpace=wrap;html=1;" vertex="1" parent="1">
          <mxGeometry x="216.5" y="1230" width="115" height="50" as="geometry" />
        </mxCell>
        <mxCell id="dOjIr_5ijq0Jgbx3m4R6-69" value="" style="endArrow=none;dashed=1;html=1;rounded=0;exitX=0;exitY=1;exitDx=0;exitDy=0;entryX=0.58;entryY=0;entryDx=0;entryDy=0;entryPerimeter=0;" edge="1" parent="1" source="dOjIr_5ijq0Jgbx3m4R6-68" target="dOjIr_5ijq0Jgbx3m4R6-70">
          <mxGeometry width="50" height="50" relative="1" as="geometry">
            <mxPoint x="404" y="1350" as="sourcePoint" />
            <mxPoint x="204" y="1310" as="targetPoint" />
          </mxGeometry>
        </mxCell>
        <mxCell id="dOjIr_5ijq0Jgbx3m4R6-70" value="&amp;lt;&amp;lt; include &amp;gt;&amp;gt;" style="text;html=1;align=center;verticalAlign=middle;resizable=0;points=[];autosize=1;strokeColor=none;fillColor=none;rotation=0;" vertex="1" parent="1">
          <mxGeometry x="161.5" y="1290" width="100" height="30" as="geometry" />
        </mxCell>
        <mxCell id="dOjIr_5ijq0Jgbx3m4R6-71" value="" style="endArrow=classic;html=1;rounded=0;" edge="1" parent="1" source="dOjIr_5ijq0Jgbx3m4R6-70">
          <mxGeometry width="50" height="50" relative="1" as="geometry">
            <mxPoint x="184" y="1330" as="sourcePoint" />
            <mxPoint x="184" y="1340" as="targetPoint" />
          </mxGeometry>
        </mxCell>
        <mxCell id="dOjIr_5ijq0Jgbx3m4R6-72" value="Being patient befor" style="ellipse;whiteSpace=wrap;html=1;" vertex="1" parent="1">
          <mxGeometry x="129" y="1340" width="125" height="50" as="geometry" />
        </mxCell>
        <mxCell id="dOjIr_5ijq0Jgbx3m4R6-73" value="Having checkup records" style="ellipse;whiteSpace=wrap;html=1;" vertex="1" parent="1">
          <mxGeometry x="309" y="1350" width="130" height="50" as="geometry" />
        </mxCell>
        <mxCell id="dOjIr_5ijq0Jgbx3m4R6-74" value="" style="endArrow=none;dashed=1;html=1;rounded=0;exitX=0.5;exitY=1;exitDx=0;exitDy=0;" edge="1" parent="1" source="dOjIr_5ijq0Jgbx3m4R6-68">
          <mxGeometry width="50" height="50" relative="1" as="geometry">
            <mxPoint x="424" y="1220" as="sourcePoint" />
            <mxPoint x="294" y="1310" as="targetPoint" />
          </mxGeometry>
        </mxCell>
        <mxCell id="dOjIr_5ijq0Jgbx3m4R6-75" value="&amp;lt;&amp;lt; include &amp;gt;&amp;gt;" style="text;html=1;align=center;verticalAlign=middle;resizable=0;points=[];autosize=1;strokeColor=none;fillColor=none;rotation=0;" vertex="1" parent="1">
          <mxGeometry x="274" y="1300" width="100" height="30" as="geometry" />
        </mxCell>
        <mxCell id="dOjIr_5ijq0Jgbx3m4R6-76" value="" style="endArrow=classic;html=1;rounded=0;entryX=0;entryY=0;entryDx=0;entryDy=0;exitX=0.33;exitY=0.967;exitDx=0;exitDy=0;exitPerimeter=0;" edge="1" parent="1" source="dOjIr_5ijq0Jgbx3m4R6-75" target="dOjIr_5ijq0Jgbx3m4R6-73">
          <mxGeometry width="50" height="50" relative="1" as="geometry">
            <mxPoint x="424" y="1220" as="sourcePoint" />
            <mxPoint x="474" y="1170" as="targetPoint" />
          </mxGeometry>
        </mxCell>
        <mxCell id="dOjIr_5ijq0Jgbx3m4R6-77" value="Comment" style="ellipse;whiteSpace=wrap;html=1;" vertex="1" parent="1">
          <mxGeometry x="464" y="1260" width="120" height="50" as="geometry" />
        </mxCell>
        <mxCell id="dOjIr_5ijq0Jgbx3m4R6-78" value="" style="endArrow=classic;html=1;rounded=0;entryX=1;entryY=0.5;entryDx=0;entryDy=0;" edge="1" parent="1" target="dOjIr_5ijq0Jgbx3m4R6-68">
          <mxGeometry width="50" height="50" relative="1" as="geometry">
            <mxPoint x="394" y="1270" as="sourcePoint" />
            <mxPoint x="474" y="1170" as="targetPoint" />
          </mxGeometry>
        </mxCell>
        <mxCell id="dOjIr_5ijq0Jgbx3m4R6-79" value="" style="endArrow=none;dashed=1;html=1;rounded=0;exitX=0;exitY=0.5;exitDx=0;exitDy=0;" edge="1" parent="1" source="dOjIr_5ijq0Jgbx3m4R6-77">
          <mxGeometry width="50" height="50" relative="1" as="geometry">
            <mxPoint x="424" y="1220" as="sourcePoint" />
            <mxPoint x="394" y="1270" as="targetPoint" />
          </mxGeometry>
        </mxCell>
        <mxCell id="dOjIr_5ijq0Jgbx3m4R6-80" value="&amp;lt;&amp;lt; extend &amp;gt;&amp;gt;" style="text;html=1;align=center;verticalAlign=middle;resizable=0;points=[];autosize=1;strokeColor=none;fillColor=none;" vertex="1" parent="1">
          <mxGeometry x="364" y="1240" width="90" height="30" as="geometry" />
        </mxCell>
        <mxCell id="dOjIr_5ijq0Jgbx3m4R6-88" value="Patient" style="shape=umlActor;verticalLabelPosition=bottom;verticalAlign=top;html=1;outlineConnect=0;" vertex="1" parent="1">
          <mxGeometry x="-60" y="380" width="30" height="60" as="geometry" />
        </mxCell>
        <mxCell id="dOjIr_5ijq0Jgbx3m4R6-89" value="Doctor" style="shape=umlActor;verticalLabelPosition=bottom;verticalAlign=top;html=1;outlineConnect=0;" vertex="1" parent="1">
          <mxGeometry x="-60" y="840" width="30" height="60" as="geometry" />
        </mxCell>
        <mxCell id="dOjIr_5ijq0Jgbx3m4R6-90" value="Review management" style="ellipse;whiteSpace=wrap;html=1;" vertex="1" parent="1">
          <mxGeometry x="570" y="720" width="135" height="60" as="geometry" />
        </mxCell>
        <mxCell id="dOjIr_5ijq0Jgbx3m4R6-91" value="" style="endArrow=none;html=1;rounded=0;entryX=0;entryY=0.5;entryDx=0;entryDy=0;exitX=0.75;exitY=0.1;exitDx=0;exitDy=0;exitPerimeter=0;" edge="1" parent="1" source="dOjIr_5ijq0Jgbx3m4R6-88" target="dOjIr_5ijq0Jgbx3m4R6-1">
          <mxGeometry width="50" height="50" relative="1" as="geometry">
            <mxPoint x="-120" y="390" as="sourcePoint" />
            <mxPoint x="330" y="450" as="targetPoint" />
          </mxGeometry>
        </mxCell>
        <mxCell id="dOjIr_5ijq0Jgbx3m4R6-92" value="" style="endArrow=none;html=1;rounded=0;entryX=0;entryY=0.5;entryDx=0;entryDy=0;exitX=0.75;exitY=0.1;exitDx=0;exitDy=0;exitPerimeter=0;" edge="1" parent="1" source="dOjIr_5ijq0Jgbx3m4R6-88" target="dOjIr_5ijq0Jgbx3m4R6-2">
          <mxGeometry width="50" height="50" relative="1" as="geometry">
            <mxPoint x="-120" y="390" as="sourcePoint" />
            <mxPoint x="330" y="450" as="targetPoint" />
          </mxGeometry>
        </mxCell>
        <mxCell id="dOjIr_5ijq0Jgbx3m4R6-93" value="" style="endArrow=none;html=1;rounded=0;entryX=0;entryY=0.6;entryDx=0;entryDy=0;entryPerimeter=0;exitX=0.75;exitY=0.1;exitDx=0;exitDy=0;exitPerimeter=0;" edge="1" parent="1" source="dOjIr_5ijq0Jgbx3m4R6-88" target="dOjIr_5ijq0Jgbx3m4R6-7">
          <mxGeometry width="50" height="50" relative="1" as="geometry">
            <mxPoint x="-120" y="390" as="sourcePoint" />
            <mxPoint x="330" y="490" as="targetPoint" />
          </mxGeometry>
        </mxCell>
        <mxCell id="dOjIr_5ijq0Jgbx3m4R6-94" value="" style="endArrow=none;html=1;rounded=0;entryX=0;entryY=0.5;entryDx=0;entryDy=0;exitX=0.75;exitY=0.1;exitDx=0;exitDy=0;exitPerimeter=0;" edge="1" parent="1" source="dOjIr_5ijq0Jgbx3m4R6-88" target="dOjIr_5ijq0Jgbx3m4R6-17">
          <mxGeometry width="50" height="50" relative="1" as="geometry">
            <mxPoint x="-120" y="390" as="sourcePoint" />
            <mxPoint x="330" y="490" as="targetPoint" />
          </mxGeometry>
        </mxCell>
        <mxCell id="dOjIr_5ijq0Jgbx3m4R6-97" value="" style="endArrow=none;html=1;rounded=0;entryX=0;entryY=0.5;entryDx=0;entryDy=0;exitX=1;exitY=0.3333333333333333;exitDx=0;exitDy=0;exitPerimeter=0;" edge="1" parent="1" source="dOjIr_5ijq0Jgbx3m4R6-88" target="dOjIr_5ijq0Jgbx3m4R6-25">
          <mxGeometry width="50" height="50" relative="1" as="geometry">
            <mxPoint x="-40" y="390" as="sourcePoint" />
            <mxPoint x="330" y="660" as="targetPoint" />
          </mxGeometry>
        </mxCell>
        <mxCell id="dOjIr_5ijq0Jgbx3m4R6-98" value="" style="endArrow=none;html=1;rounded=0;entryX=0;entryY=0.5;entryDx=0;entryDy=0;exitX=0.5;exitY=0.5;exitDx=0;exitDy=0;exitPerimeter=0;" edge="1" parent="1" source="dOjIr_5ijq0Jgbx3m4R6-88" target="dOjIr_5ijq0Jgbx3m4R6-26">
          <mxGeometry width="50" height="50" relative="1" as="geometry">
            <mxPoint x="280" y="710" as="sourcePoint" />
            <mxPoint x="330" y="660" as="targetPoint" />
          </mxGeometry>
        </mxCell>
        <mxCell id="dOjIr_5ijq0Jgbx3m4R6-99" value="" style="endArrow=none;html=1;rounded=0;exitX=0;exitY=0;exitDx=0;exitDy=0;entryX=1;entryY=1;entryDx=0;entryDy=0;entryPerimeter=0;" edge="1" parent="1" source="dOjIr_5ijq0Jgbx3m4R6-53" target="dOjIr_5ijq0Jgbx3m4R6-88">
          <mxGeometry width="50" height="50" relative="1" as="geometry">
            <mxPoint x="280" y="710" as="sourcePoint" />
            <mxPoint x="330" y="660" as="targetPoint" />
          </mxGeometry>
        </mxCell>
        <mxCell id="dOjIr_5ijq0Jgbx3m4R6-100" value="" style="endArrow=none;html=1;rounded=0;exitX=0;exitY=0.5;exitDx=0;exitDy=0;" edge="1" parent="1" source="dOjIr_5ijq0Jgbx3m4R6-54">
          <mxGeometry width="50" height="50" relative="1" as="geometry">
            <mxPoint x="280" y="890" as="sourcePoint" />
            <mxPoint x="-40" y="440" as="targetPoint" />
          </mxGeometry>
        </mxCell>
        <mxCell id="dOjIr_5ijq0Jgbx3m4R6-101" value="" style="endArrow=none;html=1;rounded=0;exitX=0;exitY=0.5;exitDx=0;exitDy=0;" edge="1" parent="1" source="dOjIr_5ijq0Jgbx3m4R6-59">
          <mxGeometry width="50" height="50" relative="1" as="geometry">
            <mxPoint x="280" y="1030" as="sourcePoint" />
            <mxPoint x="-40" y="440" as="targetPoint" />
            <Array as="points">
              <mxPoint x="100" y="980" />
            </Array>
          </mxGeometry>
        </mxCell>
        <mxCell id="dOjIr_5ijq0Jgbx3m4R6-102" value="" style="endArrow=none;html=1;rounded=0;exitX=0;exitY=0.5;exitDx=0;exitDy=0;" edge="1" parent="1" source="dOjIr_5ijq0Jgbx3m4R6-68">
          <mxGeometry width="50" height="50" relative="1" as="geometry">
            <mxPoint x="280" y="1030" as="sourcePoint" />
            <mxPoint x="-50" y="440" as="targetPoint" />
            <Array as="points">
              <mxPoint x="70" y="1090" />
            </Array>
          </mxGeometry>
        </mxCell>
        <mxCell id="dOjIr_5ijq0Jgbx3m4R6-104" value="" style="endArrow=none;html=1;rounded=0;exitX=0.5;exitY=0;exitDx=0;exitDy=0;exitPerimeter=0;" edge="1" parent="1" source="dOjIr_5ijq0Jgbx3m4R6-89">
          <mxGeometry width="50" height="50" relative="1" as="geometry">
            <mxPoint x="280" y="540" as="sourcePoint" />
            <mxPoint x="220" y="130" as="targetPoint" />
            <Array as="points">
              <mxPoint x="30" y="460" />
              <mxPoint x="60" y="340" />
            </Array>
          </mxGeometry>
        </mxCell>
        <mxCell id="dOjIr_5ijq0Jgbx3m4R6-105" value="" style="endArrow=none;html=1;rounded=0;exitX=0.75;exitY=0.1;exitDx=0;exitDy=0;exitPerimeter=0;" edge="1" parent="1" source="dOjIr_5ijq0Jgbx3m4R6-89">
          <mxGeometry width="50" height="50" relative="1" as="geometry">
            <mxPoint x="280" y="540" as="sourcePoint" />
            <mxPoint x="220" y="200" as="targetPoint" />
            <Array as="points">
              <mxPoint x="50" y="480" />
              <mxPoint x="120" y="320" />
            </Array>
          </mxGeometry>
        </mxCell>
        <mxCell id="dOjIr_5ijq0Jgbx3m4R6-106" value="" style="endArrow=none;html=1;rounded=0;entryX=0;entryY=0.5;entryDx=0;entryDy=0;exitX=0.5;exitY=0;exitDx=0;exitDy=0;exitPerimeter=0;" edge="1" parent="1" source="dOjIr_5ijq0Jgbx3m4R6-89" target="dOjIr_5ijq0Jgbx3m4R6-7">
          <mxGeometry width="50" height="50" relative="1" as="geometry">
            <mxPoint x="280" y="680" as="sourcePoint" />
            <mxPoint x="330" y="630" as="targetPoint" />
            <Array as="points">
              <mxPoint x="60" y="570" />
              <mxPoint x="100" y="440" />
            </Array>
          </mxGeometry>
        </mxCell>
        <mxCell id="dOjIr_5ijq0Jgbx3m4R6-107" value="" style="endArrow=none;html=1;rounded=0;entryX=0;entryY=0.5;entryDx=0;entryDy=0;exitX=0.75;exitY=0.1;exitDx=0;exitDy=0;exitPerimeter=0;" edge="1" parent="1" source="dOjIr_5ijq0Jgbx3m4R6-89" target="dOjIr_5ijq0Jgbx3m4R6-17">
          <mxGeometry width="50" height="50" relative="1" as="geometry">
            <mxPoint x="370" y="650" as="sourcePoint" />
            <mxPoint x="420" y="600" as="targetPoint" />
            <Array as="points">
              <mxPoint x="70" y="600" />
            </Array>
          </mxGeometry>
        </mxCell>
        <mxCell id="dOjIr_5ijq0Jgbx3m4R6-108" value="" style="endArrow=none;html=1;rounded=0;exitX=0;exitY=0.5;exitDx=0;exitDy=0;entryX=0.75;entryY=0.1;entryDx=0;entryDy=0;entryPerimeter=0;" edge="1" parent="1" source="dOjIr_5ijq0Jgbx3m4R6-27" target="dOjIr_5ijq0Jgbx3m4R6-89">
          <mxGeometry width="50" height="50" relative="1" as="geometry">
            <mxPoint x="370" y="850" as="sourcePoint" />
            <mxPoint x="420" y="800" as="targetPoint" />
          </mxGeometry>
        </mxCell>
        <mxCell id="dOjIr_5ijq0Jgbx3m4R6-109" value="" style="endArrow=none;html=1;rounded=0;entryX=0;entryY=0.5;entryDx=0;entryDy=0;" edge="1" parent="1" target="dOjIr_5ijq0Jgbx3m4R6-27">
          <mxGeometry width="50" height="50" relative="1" as="geometry">
            <mxPoint x="-30" y="450" as="sourcePoint" />
            <mxPoint x="420" y="800" as="targetPoint" />
            <Array as="points">
              <mxPoint x="90" y="630" />
              <mxPoint x="140" y="720" />
            </Array>
          </mxGeometry>
        </mxCell>
        <mxCell id="dOjIr_5ijq0Jgbx3m4R6-110" value="" style="endArrow=none;html=1;rounded=0;exitX=0.75;exitY=0.1;exitDx=0;exitDy=0;exitPerimeter=0;entryX=0;entryY=0.5;entryDx=0;entryDy=0;" edge="1" parent="1" source="dOjIr_5ijq0Jgbx3m4R6-89" target="dOjIr_5ijq0Jgbx3m4R6-53">
          <mxGeometry width="50" height="50" relative="1" as="geometry">
            <mxPoint x="370" y="940" as="sourcePoint" />
            <mxPoint x="420" y="890" as="targetPoint" />
          </mxGeometry>
        </mxCell>
        <mxCell id="dOjIr_5ijq0Jgbx3m4R6-111" value="Admin" style="shape=umlActor;verticalLabelPosition=bottom;verticalAlign=top;html=1;outlineConnect=0;" vertex="1" parent="1">
          <mxGeometry x="850" y="500" width="30" height="60" as="geometry" />
        </mxCell>
        <mxCell id="dOjIr_5ijq0Jgbx3m4R6-112" value="" style="endArrow=none;html=1;rounded=0;entryX=0;entryY=1;entryDx=0;entryDy=0;entryPerimeter=0;exitX=1;exitY=0;exitDx=0;exitDy=0;" edge="1" parent="1" source="dOjIr_5ijq0Jgbx3m4R6-90" target="dOjIr_5ijq0Jgbx3m4R6-111">
          <mxGeometry width="50" height="50" relative="1" as="geometry">
            <mxPoint x="270" y="470" as="sourcePoint" />
            <mxPoint x="320" y="420" as="targetPoint" />
          </mxGeometry>
        </mxCell>
        <mxCell id="dOjIr_5ijq0Jgbx3m4R6-113" value="" style="endArrow=none;html=1;rounded=0;entryX=0;entryY=1;entryDx=0;entryDy=0;entryPerimeter=0;exitX=0.998;exitY=0.364;exitDx=0;exitDy=0;exitPerimeter=0;" edge="1" parent="1" source="dOjIr_5ijq0Jgbx3m4R6-28" target="dOjIr_5ijq0Jgbx3m4R6-111">
          <mxGeometry width="50" height="50" relative="1" as="geometry">
            <mxPoint x="270" y="540" as="sourcePoint" />
            <mxPoint x="320" y="490" as="targetPoint" />
            <Array as="points">
              <mxPoint x="720" y="650" />
            </Array>
          </mxGeometry>
        </mxCell>
        <mxCell id="dOjIr_5ijq0Jgbx3m4R6-114" value="" style="endArrow=none;html=1;rounded=0;entryX=0;entryY=1;entryDx=0;entryDy=0;entryPerimeter=0;exitX=1;exitY=0.5;exitDx=0;exitDy=0;" edge="1" parent="1" source="dOjIr_5ijq0Jgbx3m4R6-21" target="dOjIr_5ijq0Jgbx3m4R6-111">
          <mxGeometry width="50" height="50" relative="1" as="geometry">
            <mxPoint x="270" y="470" as="sourcePoint" />
            <mxPoint x="320" y="420" as="targetPoint" />
          </mxGeometry>
        </mxCell>
        <mxCell id="dOjIr_5ijq0Jgbx3m4R6-115" value="" style="endArrow=none;html=1;rounded=0;entryX=1;entryY=0.5;entryDx=0;entryDy=0;exitX=0.25;exitY=0.1;exitDx=0;exitDy=0;exitPerimeter=0;" edge="1" parent="1" source="dOjIr_5ijq0Jgbx3m4R6-111" target="dOjIr_5ijq0Jgbx3m4R6-8">
          <mxGeometry width="50" height="50" relative="1" as="geometry">
            <mxPoint x="270" y="470" as="sourcePoint" />
            <mxPoint x="320" y="420" as="targetPoint" />
            <Array as="points">
              <mxPoint x="750" y="460" />
            </Array>
          </mxGeometry>
        </mxCell>
        <mxCell id="dOjIr_5ijq0Jgbx3m4R6-116" value="" style="endArrow=none;html=1;rounded=0;entryX=1;entryY=1;entryDx=0;entryDy=0;exitX=0.5;exitY=0;exitDx=0;exitDy=0;exitPerimeter=0;" edge="1" parent="1" source="dOjIr_5ijq0Jgbx3m4R6-111" target="dOjIr_5ijq0Jgbx3m4R6-45">
          <mxGeometry width="50" height="50" relative="1" as="geometry">
            <mxPoint x="270" y="440" as="sourcePoint" />
            <mxPoint x="320" y="390" as="targetPoint" />
          </mxGeometry>
        </mxCell>
        <mxCell id="dOjIr_5ijq0Jgbx3m4R6-117" value="Text" style="text;html=1;align=center;verticalAlign=middle;resizable=0;points=[];autosize=1;strokeColor=none;fillColor=none;" vertex="1" parent="1">
          <mxGeometry x="-380" y="808" width="40" height="30" as="geometry" />
        </mxCell>
        <mxCell id="dOjIr_5ijq0Jgbx3m4R6-118" value="Text" style="text;html=1;align=center;verticalAlign=middle;resizable=0;points=[];autosize=1;strokeColor=none;fillColor=none;" vertex="1" parent="1">
          <mxGeometry x="1000" y="828" width="40" height="30" as="geometry" />
        </mxCell>
        <mxCell id="dOjIr_5ijq0Jgbx3m4R6-119" value="Text" style="text;html=1;align=center;verticalAlign=middle;resizable=0;points=[];autosize=1;strokeColor=none;fillColor=none;" vertex="1" parent="1">
          <mxGeometry x="320" y="-82" width="40" height="30" as="geometry" />
        </mxCell>
        <mxCell id="dOjIr_5ijq0Jgbx3m4R6-120" value="Text" style="text;html=1;align=center;verticalAlign=middle;resizable=0;points=[];autosize=1;strokeColor=none;fillColor=none;" vertex="1" parent="1">
          <mxGeometry x="300" y="1588" width="40" height="30" as="geometry" />
        </mxCell>
      </root>
    </mxGraphModel>
  </diagram>
</mxfile>
